<svg width="199" height="58" viewBox="0 0 199 58" fill="none" xmlns="http://www.w3.org/2000/svg">
<g opacity="0.87">
<path d="M9.13086 29.9175C8.44727 29.9175 7.94271 29.7751 7.61719 29.4902C7.29167 29.2054 7.12891 28.7497 7.12891 28.123V12.6201C6.86849 12.6445 6.54297 12.6934 6.15234 12.7666C5.76986 12.8317 5.36702 12.9294 4.94385 13.0596C4.52067 13.1898 4.09749 13.3485 3.67432 13.5356C3.25114 13.7147 2.87272 13.9263 2.53906 14.1704C2.2054 14.4064 1.93278 14.675 1.72119 14.9761C1.5096 15.2772 1.40381 15.6108 1.40381 15.9771C1.40381 16.2375 1.43636 16.445 1.50146 16.5996C1.57471 16.7542 1.65609 16.8722 1.74561 16.9536C1.83512 17.0269 1.92464 17.0757 2.01416 17.1001C2.11182 17.1164 2.18099 17.1245 2.22168 17.1245C2.42513 17.1245 2.59196 17.092 2.72217 17.0269C2.85238 16.9536 2.97038 16.8804 3.07617 16.8071C3.18197 16.7257 3.27962 16.6525 3.36914 16.5874C3.4668 16.5142 3.57666 16.4775 3.69873 16.4775C3.79639 16.4775 3.89811 16.502 4.00391 16.5508C4.11784 16.5915 4.21956 16.6606 4.30908 16.7583C4.40674 16.856 4.48812 16.9862 4.55322 17.1489C4.61833 17.3035 4.65088 17.4948 4.65088 17.7227C4.65088 18.0482 4.58577 18.3289 4.45557 18.5649C4.3335 18.8009 4.17074 19.0003 3.96729 19.1631C3.77197 19.3177 3.54411 19.4357 3.28369 19.5171C3.03141 19.5903 2.77913 19.627 2.52686 19.627C2.13623 19.627 1.78223 19.5618 1.46484 19.4316C1.1556 19.2933 0.891113 19.1061 0.671387 18.8701C0.45166 18.6341 0.284831 18.3574 0.170898 18.04C0.0569661 17.7227 0 17.3849 0 17.0269C0 16.0747 0.260417 15.2528 0.78125 14.561C1.31022 13.8612 2.03044 13.2834 2.94189 12.8276C3.85335 12.3638 4.91536 12.022 6.12793 11.8022C7.34049 11.5825 8.63851 11.4727 10.022 11.4727C10.6812 11.4727 11.3241 11.4808 11.9507 11.4971C12.5773 11.5052 13.147 11.5215 13.6597 11.5459C14.1805 11.5703 14.6281 11.5988 15.0024 11.6313C15.3768 11.6639 15.6494 11.7005 15.8203 11.7412C15.9831 11.7819 16.1133 11.8429 16.2109 11.9243C16.3086 11.9976 16.3818 12.083 16.4307 12.1807C16.4795 12.2783 16.512 12.3841 16.5283 12.498C16.5446 12.6038 16.5527 12.7137 16.5527 12.8276C16.5527 12.9172 16.5405 13.0229 16.5161 13.145C16.4917 13.259 16.4551 13.3688 16.4062 13.4746C16.3574 13.5804 16.2964 13.6699 16.2231 13.7432C16.1499 13.8164 16.0604 13.853 15.9546 13.853C15.8895 13.853 15.8203 13.8245 15.7471 13.7676C15.682 13.7106 15.5884 13.6414 15.4663 13.5601C15.3442 13.4787 15.1774 13.3851 14.9658 13.2793C14.7624 13.1735 14.4897 13.0758 14.1479 12.9863C13.8143 12.8968 13.3993 12.8154 12.9028 12.7422C12.4146 12.6689 11.8205 12.6201 11.1206 12.5957V28.123C11.1206 28.7497 10.9578 29.2054 10.6323 29.4902C10.3068 29.7751 9.80632 29.9175 9.13086 29.9175ZM19.458 19.627C19.7673 19.1549 20.0968 18.7277 20.4468 18.3452C20.5933 18.1825 20.752 18.0238 20.9229 17.8691C21.0938 17.7145 21.2687 17.5762 21.4478 17.4541C21.6349 17.332 21.8262 17.2344 22.0215 17.1611C22.2168 17.0879 22.4121 17.0513 22.6074 17.0513C23.0225 17.0513 23.348 17.1774 23.584 17.4297C23.82 17.6738 23.938 18.0197 23.938 18.4673C23.938 18.744 23.9136 19.0125 23.8647 19.2729C23.8241 19.5252 23.7386 19.8345 23.6084 20.2007H23.2666C23.2178 19.9484 23.1038 19.7409 22.9248 19.5781C22.7458 19.4072 22.4854 19.3218 22.1436 19.3218C21.8913 19.3218 21.6431 19.3706 21.3989 19.4683C21.1548 19.5578 20.9147 19.6717 20.6787 19.8101C20.4508 19.9484 20.2311 20.099 20.0195 20.2617C19.8161 20.4245 19.6289 20.5791 19.458 20.7256V28.6479C19.458 28.7537 19.4417 28.8799 19.4092 29.0264C19.3766 29.1729 19.2952 29.3112 19.165 29.4414C19.043 29.5716 18.8558 29.6815 18.6035 29.771C18.3594 29.8687 18.0216 29.9175 17.5903 29.9175C17.159 29.9175 16.8172 29.8646 16.5649 29.7588C16.3208 29.6611 16.1336 29.5431 16.0034 29.4048C15.8732 29.2664 15.7918 29.124 15.7593 28.9775C15.7267 28.8311 15.7104 28.7131 15.7104 28.6235V19.1997C15.7104 18.9637 15.6535 18.7603 15.5396 18.5894C15.4338 18.4103 15.2507 18.3208 14.9902 18.3208C14.8519 18.3208 14.7339 18.3452 14.6362 18.394C14.5386 18.4429 14.4328 18.512 14.3188 18.6016L14.0625 18.2964C14.2497 18.1418 14.4572 17.9912 14.6851 17.8447C14.9211 17.6901 15.1733 17.5558 15.4419 17.4419C15.7104 17.328 15.9993 17.2344 16.3086 17.1611C16.6178 17.0879 16.9434 17.0513 17.2852 17.0513C17.6351 17.0513 17.9321 17.1001 18.1763 17.1978C18.4285 17.2873 18.632 17.4093 18.7866 17.564C18.9494 17.7104 19.0755 17.8773 19.165 18.0645C19.2546 18.2516 19.3197 18.4429 19.3604 18.6382C19.4092 18.8254 19.4377 19.0085 19.4458 19.1875C19.4539 19.3584 19.458 19.5049 19.458 19.627ZM30.7495 23.3989C30.7495 23.1955 30.6844 23.0409 30.5542 22.9351C30.424 22.8293 30.2572 22.7764 30.0537 22.7764C29.7689 22.7764 29.4963 22.8415 29.2358 22.9717C28.9836 23.1019 28.7598 23.2931 28.5645 23.5454C28.3691 23.7977 28.2145 24.111 28.1006 24.4854C27.9867 24.8516 27.9297 25.2788 27.9297 25.7671C27.9297 26.2391 27.9622 26.6297 28.0273 26.939C28.1006 27.2482 28.1942 27.4964 28.3081 27.6836C28.4302 27.8626 28.5685 27.9888 28.7231 28.062C28.8778 28.1353 29.0405 28.1719 29.2114 28.1719C29.423 28.1719 29.6224 28.119 29.8096 28.0132C29.9967 27.8993 30.1595 27.7568 30.2979 27.5859C30.4362 27.415 30.5461 27.2238 30.6274 27.0122C30.7088 26.8006 30.7495 26.589 30.7495 26.3774V23.3989ZM28.8086 18.0522C28.5319 18.0522 28.2756 18.0848 28.0396 18.1499C27.8035 18.215 27.6001 18.2964 27.4292 18.394C27.2583 18.4917 27.124 18.6016 27.0264 18.7236C26.9287 18.8376 26.8799 18.9474 26.8799 19.0532C26.8799 19.1753 26.9409 19.2648 27.063 19.3218C27.1932 19.3706 27.3356 19.4316 27.4902 19.5049C27.6449 19.57 27.7832 19.6676 27.9053 19.7979C28.0355 19.9199 28.1006 20.1112 28.1006 20.3716C28.1006 20.5425 28.064 20.7012 27.9907 20.8477C27.9256 20.986 27.832 21.1121 27.71 21.2261C27.596 21.3319 27.4577 21.4173 27.2949 21.4824C27.1403 21.5394 26.9775 21.5679 26.8066 21.5679C26.3509 21.5679 25.9806 21.4132 25.6958 21.104C25.4191 20.7948 25.2808 20.3838 25.2808 19.8711C25.2808 19.3747 25.411 18.9515 25.6714 18.6016C25.9318 18.2435 26.2695 17.9505 26.6846 17.7227C27.1077 17.4948 27.5838 17.328 28.1128 17.2222C28.6418 17.1082 29.1707 17.0513 29.6997 17.0513C30.3345 17.0513 30.9408 17.1204 31.5186 17.2588C32.0964 17.3971 32.605 17.6169 33.0444 17.918C33.492 18.2191 33.846 18.6016 34.1064 19.0654C34.375 19.5293 34.5093 20.0908 34.5093 20.75V27.647C34.5093 27.7202 34.5133 27.8016 34.5215 27.8911C34.5296 27.9806 34.55 28.062 34.5825 28.1353C34.6151 28.2085 34.6639 28.2695 34.729 28.3184C34.7941 28.3672 34.8877 28.3916 35.0098 28.3916C35.1562 28.3916 35.2905 28.3387 35.4126 28.2329C35.5428 28.119 35.6567 28.005 35.7544 27.8911L36.0596 28.1475C35.9375 28.3184 35.791 28.5055 35.6201 28.709C35.4492 28.9124 35.2417 29.1037 34.9976 29.2827C34.7534 29.4618 34.4686 29.6123 34.1431 29.7344C33.8175 29.8564 33.4473 29.9175 33.0322 29.9175C32.5195 29.9175 32.0638 29.7669 31.665 29.4658C31.2663 29.1566 31.0059 28.6846 30.8838 28.0498C30.6234 28.3997 30.3507 28.6927 30.0659 28.9287C29.7892 29.1647 29.5044 29.356 29.2114 29.5024C28.9185 29.6489 28.6214 29.7547 28.3203 29.8198C28.0273 29.8849 27.7303 29.9175 27.4292 29.9175C27.0386 29.9175 26.6602 29.8564 26.2939 29.7344C25.9277 29.6123 25.5981 29.4211 25.3052 29.1606C25.0203 28.8921 24.7884 28.5462 24.6094 28.123C24.4385 27.6999 24.353 27.1831 24.353 26.5728C24.353 25.8322 24.4995 25.2259 24.7925 24.7539C25.0854 24.2819 25.4679 23.8872 25.9399 23.5698C26.4201 23.2443 26.9613 22.9676 27.5635 22.7397C28.1738 22.5119 28.7964 22.2718 29.4312 22.0195C29.9032 21.8324 30.245 21.5557 30.4565 21.1895C30.6763 20.8151 30.7861 20.4326 30.7861 20.042C30.7861 19.4398 30.6071 18.9596 30.249 18.6016C29.8991 18.2354 29.4189 18.0522 28.8086 18.0522ZM44.8853 23.6431C44.8853 22.6177 44.8364 21.7998 44.7388 21.1895C44.6493 20.571 44.5272 20.103 44.3726 19.7856C44.2179 19.4601 44.047 19.2485 43.8599 19.1509C43.6727 19.0451 43.4814 18.9922 43.2861 18.9922C43.0501 18.9922 42.8385 19.0573 42.6514 19.1875C42.4723 19.3096 42.3136 19.452 42.1753 19.6147C42.0451 19.7775 41.9312 19.9403 41.8335 20.103C41.744 20.2658 41.6667 20.3879 41.6016 20.4692V28.6235C41.6016 28.7293 41.5853 28.8595 41.5527 29.0142C41.5202 29.1606 41.4388 29.3031 41.3086 29.4414C41.1865 29.5716 40.9993 29.6815 40.7471 29.771C40.5029 29.8687 40.1652 29.9175 39.7339 29.9175C39.3026 29.9175 38.9608 29.8646 38.7085 29.7588C38.4644 29.6611 38.2772 29.5431 38.147 29.4048C38.0168 29.2664 37.9354 29.124 37.9028 28.9775C37.8703 28.8311 37.854 28.7131 37.854 28.6235V19.1997C37.854 18.9637 37.797 18.7603 37.6831 18.5894C37.5773 18.4103 37.3942 18.3208 37.1338 18.3208C36.9954 18.3208 36.8774 18.3452 36.7798 18.394C36.6821 18.4429 36.5763 18.512 36.4624 18.6016L36.2061 18.2964C36.3932 18.1418 36.6007 17.9912 36.8286 17.8447C37.0646 17.6901 37.3169 17.5558 37.5854 17.4419C37.854 17.328 38.1429 17.2344 38.4521 17.1611C38.7614 17.0879 39.0869 17.0513 39.4287 17.0513C39.9577 17.0513 40.3687 17.1408 40.6616 17.3198C40.9546 17.4907 41.1702 17.6982 41.3086 17.9424C41.4469 18.1865 41.5283 18.4429 41.5527 18.7114C41.5853 18.9718 41.6016 19.1916 41.6016 19.3706C41.9027 18.9393 42.2445 18.5527 42.627 18.2109C42.7816 18.0645 42.9525 17.922 43.1396 17.7837C43.335 17.6453 43.5384 17.5233 43.75 17.4175C43.9697 17.3035 44.1976 17.214 44.4336 17.1489C44.6777 17.0838 44.9259 17.0513 45.1782 17.0513C45.7316 17.0513 46.2199 17.1571 46.6431 17.3687C47.0744 17.5802 47.4365 17.9342 47.7295 18.4307C48.0225 18.9271 48.2463 19.5863 48.4009 20.4082C48.5555 21.222 48.6328 22.2352 48.6328 23.4478C48.6328 24.6278 48.527 25.6532 48.3154 26.5239C48.1038 27.3947 47.8271 28.1353 47.4854 28.7456C47.1436 29.356 46.757 29.8524 46.3257 30.2349C45.8944 30.6255 45.459 30.9307 45.0195 31.1504C44.5801 31.3701 44.1569 31.5207 43.75 31.6021C43.3512 31.6916 43.0054 31.7404 42.7124 31.7485L42.5781 31.248C42.8223 31.1911 43.0461 31.1016 43.2495 30.9795C43.4611 30.8574 43.6523 30.6784 43.8232 30.4424C43.9941 30.2064 44.1447 29.9093 44.2749 29.5513C44.4051 29.1851 44.515 28.7293 44.6045 28.1841C44.7021 27.6388 44.7713 26.9959 44.812 26.2554C44.8608 25.5067 44.8853 24.6359 44.8853 23.6431ZM55.0781 18.0278C54.891 18.0278 54.7119 18.0522 54.541 18.1011C54.3783 18.1499 54.2318 18.2313 54.1016 18.3452C53.9714 18.451 53.8696 18.5894 53.7964 18.7603C53.7231 18.923 53.6865 19.1183 53.6865 19.3462C53.6865 19.6636 53.8005 19.981 54.0283 20.2983C54.2643 20.6076 54.5532 20.9331 54.895 21.2749C55.245 21.6086 55.6193 21.9585 56.0181 22.3247C56.425 22.6828 56.7993 23.0653 57.1411 23.4722C57.491 23.8709 57.7799 24.2982 58.0078 24.7539C58.2438 25.2096 58.3618 25.6979 58.3618 26.2188C58.3618 26.8047 58.2601 27.3255 58.0566 27.7812C57.8613 28.237 57.5765 28.6235 57.2021 28.9409C56.8359 29.2583 56.3883 29.5024 55.8594 29.6733C55.3385 29.8361 54.7567 29.9175 54.1138 29.9175C53.5522 29.9175 53.0436 29.8402 52.5879 29.6855C52.1322 29.5228 51.7253 29.3275 51.3672 29.0996C51.0173 28.8636 50.7161 28.6154 50.4639 28.355C50.2116 28.0946 50.0163 27.8586 49.8779 27.647L50.3052 27.3418C50.411 27.4639 50.5452 27.5981 50.708 27.7446C50.8708 27.883 51.0498 28.0132 51.2451 28.1353C51.4486 28.2573 51.6642 28.359 51.8921 28.4404C52.12 28.5137 52.3519 28.5503 52.5879 28.5503C53.1738 28.5503 53.654 28.4119 54.0283 28.1353C54.4027 27.8504 54.5898 27.4313 54.5898 26.8779C54.5898 26.5687 54.4881 26.2513 54.2847 25.9258C54.0812 25.5921 53.8249 25.2503 53.5156 24.9004C53.2064 24.5505 52.8727 24.1883 52.5146 23.814C52.1566 23.4396 51.8229 23.0531 51.5137 22.6543C51.2044 22.2555 50.9481 21.8446 50.7446 21.4214C50.5412 20.9982 50.4395 20.5588 50.4395 20.103C50.4395 19.5903 50.5412 19.1427 50.7446 18.7603C50.9562 18.3778 51.2329 18.0604 51.5747 17.8081C51.9246 17.5558 52.3193 17.3687 52.7588 17.2466C53.2064 17.1164 53.6662 17.0513 54.1382 17.0513C54.6834 17.0513 55.1799 17.1001 55.6274 17.1978C56.075 17.2954 56.4575 17.446 56.7749 17.6494C57.1004 17.8447 57.3486 18.0929 57.5195 18.394C57.6986 18.6951 57.7881 19.0451 57.7881 19.4438C57.7881 19.7531 57.6864 20.0216 57.4829 20.2495C57.2795 20.4774 56.9946 20.5913 56.6284 20.5913C56.2785 20.5913 56.0099 20.5181 55.8228 20.3716C55.6437 20.217 55.5542 20.0094 55.5542 19.749C55.5542 19.5781 55.5949 19.4438 55.6763 19.3462C55.7658 19.2485 55.8634 19.1712 55.9692 19.1143C56.075 19.0492 56.1686 18.9963 56.25 18.9556C56.3395 18.9067 56.3843 18.8457 56.3843 18.7725C56.3843 18.5446 56.2622 18.3656 56.0181 18.2354C55.7739 18.097 55.4606 18.0278 55.0781 18.0278ZM66.6504 11.5703C66.4225 11.5703 66.2069 11.6191 66.0034 11.7168C65.8 11.8145 65.6209 11.9731 65.4663 12.1929C65.3198 12.4045 65.2018 12.6771 65.1123 13.0107C65.0228 13.3444 64.978 13.7472 64.978 14.2192V17.2222H67.6514V18.1011H64.978V27.7202C64.978 28.827 64.8315 29.8483 64.5386 30.7842C64.2537 31.7201 63.8184 32.5257 63.2324 33.2012C62.6465 33.8848 61.9141 34.4178 61.0352 34.8003C60.1562 35.1828 59.1309 35.374 57.959 35.374C57.5439 35.374 57.1452 35.3374 56.7627 35.2642C56.3802 35.1991 56.0425 35.1055 55.7495 34.9834C55.4565 34.8613 55.2246 34.7148 55.0537 34.5439C54.8747 34.3812 54.7852 34.1981 54.7852 33.9946C54.7852 33.8481 54.8055 33.6976 54.8462 33.543C54.8869 33.3965 54.9479 33.2622 55.0293 33.1401C55.1107 33.0181 55.2124 32.9163 55.3345 32.835C55.4484 32.7617 55.5827 32.7251 55.7373 32.7251C55.8268 32.7251 55.9082 32.7699 55.9814 32.8594C56.0465 32.9489 56.1157 33.0588 56.189 33.189C56.2622 33.3192 56.3477 33.4616 56.4453 33.6162C56.5348 33.779 56.6528 33.9255 56.7993 34.0557C56.9458 34.1859 57.1289 34.2957 57.3486 34.3853C57.5602 34.4748 57.8206 34.5195 58.1299 34.5195C58.5449 34.5195 58.9111 34.4341 59.2285 34.2632C59.5459 34.1004 59.8185 33.8726 60.0464 33.5796C60.2743 33.2866 60.4655 32.9408 60.6201 32.542C60.7747 32.1432 60.8968 31.716 60.9863 31.2603C61.0758 30.8045 61.1369 30.3285 61.1694 29.832C61.2101 29.3356 61.2305 28.8392 61.2305 28.3428V18.1011H58.9844V17.2222H61.2305V15.7939C61.2305 15.0778 61.3159 14.4552 61.4868 13.9263C61.6659 13.3892 61.8978 12.9334 62.1826 12.5591C62.4756 12.1847 62.8052 11.8796 63.1714 11.6436C63.5376 11.4076 63.9079 11.2204 64.2822 11.082C64.6647 10.9437 65.035 10.8501 65.3931 10.8013C65.7511 10.7524 66.0645 10.728 66.333 10.728C66.9108 10.728 67.4235 10.7728 67.8711 10.8623C68.3187 10.9437 68.693 11.0576 68.9941 11.2041C69.2952 11.3424 69.5231 11.5052 69.6777 11.6924C69.8324 11.8796 69.9097 12.0708 69.9097 12.2661C69.9097 12.4126 69.8853 12.5632 69.8364 12.7178C69.7957 12.8643 69.7347 13.0026 69.6533 13.1328C69.5719 13.2549 69.4702 13.3566 69.3481 13.438C69.2342 13.5112 69.104 13.5479 68.9575 13.5479C68.868 13.5479 68.7866 13.499 68.7134 13.4014C68.6401 13.3037 68.5628 13.1816 68.4814 13.0352C68.4001 12.8887 68.3105 12.73 68.2129 12.5591C68.1152 12.3882 67.9932 12.2295 67.8467 12.083C67.7083 11.9365 67.5415 11.8145 67.3462 11.7168C67.1509 11.6191 66.9189 11.5703 66.6504 11.5703ZM67.7368 23.4722C67.7368 22.4061 67.8914 21.4743 68.2007 20.6768C68.5099 19.8711 68.9209 19.1997 69.4336 18.6626C69.9544 18.1255 70.5566 17.7227 71.2402 17.4541C71.9238 17.1855 72.64 17.0513 73.3887 17.0513C74.1374 17.0513 74.8535 17.1774 75.5371 17.4297C76.2207 17.6738 76.8188 18.0522 77.3315 18.5649C77.8524 19.0776 78.2674 19.7287 78.5767 20.5181C78.8859 21.2993 79.0405 22.2271 79.0405 23.3013C79.0405 24.3674 78.8859 25.3114 78.5767 26.1333C78.2674 26.9552 77.8524 27.647 77.3315 28.2085C76.8188 28.77 76.2207 29.1973 75.5371 29.4902C74.8535 29.7751 74.1374 29.9175 73.3887 29.9175C72.64 29.9175 71.9238 29.7832 71.2402 29.5146C70.5566 29.238 69.9544 28.8311 69.4336 28.2939C68.9209 27.7568 68.5099 27.0854 68.2007 26.2798C67.8914 25.4741 67.7368 24.5382 67.7368 23.4722ZM75.2441 23.3501C75.2441 22.6991 75.2197 22.0724 75.1709 21.4702C75.1302 20.8599 75.0448 20.3187 74.9146 19.8467C74.7843 19.3747 74.5972 19.0003 74.353 18.7236C74.1089 18.4388 73.7874 18.2964 73.3887 18.2964C72.9899 18.2964 72.6685 18.4469 72.4243 18.748C72.1802 19.041 71.993 19.4316 71.8628 19.9199C71.7326 20.4001 71.6471 20.9494 71.6064 21.5679C71.5658 22.1864 71.5454 22.8211 71.5454 23.4722C71.5454 24.1232 71.5658 24.762 71.6064 25.3887C71.6471 26.0072 71.7326 26.5605 71.8628 27.0488C71.993 27.5371 72.1802 27.9318 72.4243 28.2329C72.6685 28.5259 72.9899 28.6724 73.3887 28.6724C73.7874 28.6724 74.1089 28.5177 74.353 28.2085C74.5972 27.8993 74.7843 27.4924 74.9146 26.9878C75.0448 26.4832 75.1302 25.9136 75.1709 25.2788C75.2197 24.644 75.2441 24.0011 75.2441 23.3501ZM85.2295 19.627C85.5387 19.1549 85.8683 18.7277 86.2183 18.3452C86.3647 18.1825 86.5234 18.0238 86.6943 17.8691C86.8652 17.7145 87.0402 17.5762 87.2192 17.4541C87.4064 17.332 87.5977 17.2344 87.793 17.1611C87.9883 17.0879 88.1836 17.0513 88.3789 17.0513C88.7939 17.0513 89.1195 17.1774 89.3555 17.4297C89.5915 17.6738 89.7095 18.0197 89.7095 18.4673C89.7095 18.744 89.6851 19.0125 89.6362 19.2729C89.5955 19.5252 89.5101 19.8345 89.3799 20.2007H89.0381C88.9893 19.9484 88.8753 19.7409 88.6963 19.5781C88.5173 19.4072 88.2568 19.3218 87.915 19.3218C87.6628 19.3218 87.4146 19.3706 87.1704 19.4683C86.9263 19.5578 86.6862 19.6717 86.4502 19.8101C86.2223 19.9484 86.0026 20.099 85.791 20.2617C85.5876 20.4245 85.4004 20.5791 85.2295 20.7256V28.6479C85.2295 28.7537 85.2132 28.8799 85.1807 29.0264C85.1481 29.1729 85.0667 29.3112 84.9365 29.4414C84.8145 29.5716 84.6273 29.6815 84.375 29.771C84.1309 29.8687 83.7931 29.9175 83.3618 29.9175C82.9305 29.9175 82.5887 29.8646 82.3364 29.7588C82.0923 29.6611 81.9051 29.5431 81.7749 29.4048C81.6447 29.2664 81.5633 29.124 81.5308 28.9775C81.4982 28.8311 81.4819 28.7131 81.4819 28.6235V19.1997C81.4819 18.9637 81.425 18.7603 81.311 18.5894C81.2052 18.4103 81.0221 18.3208 80.7617 18.3208C80.6234 18.3208 80.5054 18.3452 80.4077 18.394C80.3101 18.4429 80.2043 18.512 80.0903 18.6016L79.834 18.2964C80.0212 18.1418 80.2287 17.9912 80.4565 17.8447C80.6925 17.6901 80.9448 17.5558 81.2134 17.4419C81.4819 17.328 81.7708 17.2344 82.0801 17.1611C82.3893 17.0879 82.7148 17.0513 83.0566 17.0513C83.4066 17.0513 83.7036 17.1001 83.9478 17.1978C84.2 17.2873 84.4035 17.4093 84.5581 17.564C84.7209 17.7104 84.847 17.8773 84.9365 18.0645C85.026 18.2516 85.0911 18.4429 85.1318 18.6382C85.1807 18.8254 85.2091 19.0085 85.2173 19.1875C85.2254 19.3584 85.2295 19.5049 85.2295 19.627ZM101.697 28.6479C101.697 28.7537 101.681 28.8799 101.648 29.0264C101.615 29.1729 101.534 29.3112 101.404 29.4414C101.282 29.5716 101.095 29.6815 100.842 29.771C100.59 29.8687 100.248 29.9175 99.8169 29.9175C99.3856 29.9175 99.0438 29.8646 98.7915 29.7588C98.5474 29.6611 98.3602 29.5431 98.23 29.4048C98.1079 29.2664 98.0306 29.124 97.998 28.9775C97.9655 28.8311 97.9492 28.7131 97.9492 28.6235V19.9932C97.9492 19.8792 97.9329 19.7653 97.9004 19.6514C97.8678 19.5293 97.819 19.4194 97.7539 19.3218C97.6888 19.2241 97.6074 19.1468 97.5098 19.0898C97.4121 19.0247 97.2982 18.9922 97.168 18.9922C96.9482 18.9922 96.7326 19.0573 96.521 19.1875C96.3094 19.3096 96.11 19.452 95.9229 19.6147C95.7438 19.7775 95.5851 19.9403 95.4468 20.103C95.3166 20.2658 95.223 20.3879 95.166 20.4692V28.6479C95.166 28.7537 95.1497 28.8799 95.1172 29.0264C95.0846 29.1729 95.0033 29.3112 94.873 29.4414C94.751 29.5716 94.5638 29.6815 94.3115 29.771C94.0674 29.8687 93.7297 29.9175 93.2983 29.9175C92.867 29.9175 92.5252 29.8646 92.2729 29.7588C92.0288 29.6611 91.8416 29.5431 91.7114 29.4048C91.5812 29.2664 91.4998 29.124 91.4673 28.9775C91.4347 28.8311 91.4185 28.7131 91.4185 28.6235V19.1997C91.4185 18.9637 91.3615 18.7603 91.2476 18.5894C91.1418 18.4103 90.9587 18.3208 90.6982 18.3208C90.5599 18.3208 90.4419 18.3452 90.3442 18.394C90.2466 18.4429 90.1408 18.512 90.0269 18.6016L89.7705 18.2964C89.9577 18.1418 90.1652 17.9912 90.3931 17.8447C90.6291 17.6901 90.8813 17.5558 91.1499 17.4419C91.4185 17.328 91.7074 17.2344 92.0166 17.1611C92.3258 17.0879 92.6514 17.0513 92.9932 17.0513C93.5221 17.0513 93.9331 17.1408 94.2261 17.3198C94.519 17.4907 94.7347 17.6982 94.873 17.9424C95.0114 18.1865 95.0928 18.4429 95.1172 18.7114C95.1497 18.9718 95.166 19.1916 95.166 19.3706C95.5485 18.9393 95.9595 18.5527 96.3989 18.2109C96.578 18.0645 96.7733 17.922 96.9849 17.7837C97.2046 17.6453 97.4284 17.5233 97.6562 17.4175C97.8841 17.3035 98.1201 17.214 98.3643 17.1489C98.6084 17.0838 98.8525 17.0513 99.0967 17.0513C99.5687 17.0513 99.9715 17.1367 100.305 17.3076C100.639 17.4785 100.907 17.686 101.111 17.9302C101.314 18.1662 101.461 18.4185 101.55 18.687C101.648 18.9474 101.697 19.1753 101.697 19.3706C102.087 18.9393 102.498 18.5527 102.93 18.2109C103.109 18.0645 103.304 17.922 103.516 17.7837C103.727 17.6453 103.947 17.5233 104.175 17.4175C104.411 17.3035 104.647 17.214 104.883 17.1489C105.127 17.0838 105.371 17.0513 105.615 17.0513C106.087 17.0513 106.49 17.1408 106.824 17.3198C107.157 17.4907 107.426 17.7186 107.629 18.0034C107.833 18.2882 107.979 18.6097 108.069 18.9678C108.167 19.3258 108.215 19.6839 108.215 20.042V27.5981C108.215 27.6714 108.219 27.7528 108.228 27.8423C108.236 27.9237 108.256 28.005 108.289 28.0864C108.321 28.1597 108.37 28.2207 108.435 28.2695C108.508 28.3184 108.602 28.3428 108.716 28.3428C108.87 28.3428 109.009 28.2899 109.131 28.1841C109.253 28.0701 109.367 27.9562 109.473 27.8423L109.766 28.0986C109.652 28.2695 109.501 28.4608 109.314 28.6724C109.127 28.8758 108.903 29.0711 108.643 29.2583C108.39 29.4455 108.093 29.6001 107.751 29.7222C107.418 29.8524 107.039 29.9175 106.616 29.9175C106.258 29.9175 105.945 29.8687 105.676 29.771C105.416 29.6815 105.192 29.5594 105.005 29.4048C104.826 29.242 104.692 29.0549 104.602 28.8433C104.513 28.6235 104.468 28.3916 104.468 28.1475V19.9932C104.468 19.8792 104.451 19.7653 104.419 19.6514C104.386 19.5293 104.338 19.4194 104.272 19.3218C104.215 19.2241 104.138 19.1468 104.041 19.0898C103.943 19.0247 103.829 18.9922 103.699 18.9922C103.479 18.9922 103.259 19.0573 103.04 19.1875C102.828 19.3096 102.629 19.452 102.441 19.6147C102.262 19.7775 102.108 19.9403 101.978 20.103C101.847 20.2658 101.754 20.3879 101.697 20.4692V28.6479ZM127.075 24.5708H122.473C122.131 25.645 121.761 26.5768 121.362 27.3662C120.972 28.1556 120.536 28.8107 120.056 29.3315C119.576 29.8524 119.047 30.2389 118.469 30.4912C117.9 30.7435 117.261 30.8696 116.553 30.8696C116.162 30.8696 115.788 30.833 115.43 30.7598C115.063 30.6947 114.742 30.6011 114.465 30.479C114.189 30.3569 113.969 30.2104 113.806 30.0396C113.635 29.8768 113.55 29.6978 113.55 29.5024C113.55 29.356 113.574 29.2095 113.623 29.063C113.664 28.9084 113.725 28.77 113.806 28.6479C113.888 28.5177 113.989 28.416 114.111 28.3428C114.225 28.2614 114.355 28.2207 114.502 28.2207C114.632 28.2207 114.746 28.3102 114.844 28.4893C114.941 28.6683 115.068 28.8677 115.222 29.0874C115.369 29.299 115.56 29.4943 115.796 29.6733C116.032 29.8524 116.357 29.9419 116.772 29.9419C117.196 29.9419 117.598 29.8402 117.981 29.6367C118.363 29.4333 118.73 29.1159 119.08 28.6846C119.438 28.2451 119.779 27.6877 120.105 27.0122C120.431 26.3368 120.748 25.5229 121.057 24.5708H118.176V23.4966H121.375C121.643 22.5851 121.903 21.6655 122.156 20.7378C122.416 19.8101 122.66 18.9189 122.888 18.0645C123.116 17.21 123.319 16.4124 123.499 15.6719C123.678 14.9232 123.828 14.2721 123.95 13.7188C123.787 13.263 123.564 12.9578 123.279 12.8032C123.002 12.6486 122.628 12.5713 122.156 12.5713C121.716 12.5713 121.261 12.6405 120.789 12.7788C120.325 12.909 119.902 13.1003 119.519 13.3525C119.137 13.5967 118.819 13.9019 118.567 14.2681C118.323 14.6261 118.201 15.029 118.201 15.4766C118.201 15.737 118.233 15.9445 118.298 16.0991C118.372 16.2537 118.453 16.3717 118.542 16.4531C118.64 16.5264 118.734 16.5752 118.823 16.5996C118.913 16.6159 118.982 16.624 119.031 16.624C119.226 16.624 119.389 16.5915 119.519 16.5264C119.657 16.4531 119.775 16.3799 119.873 16.3066C119.979 16.2253 120.081 16.152 120.178 16.0869C120.276 16.0137 120.386 15.9771 120.508 15.9771C120.597 15.9771 120.695 16.0015 120.801 16.0503C120.915 16.091 121.016 16.1602 121.106 16.2578C121.204 16.3555 121.285 16.4857 121.35 16.6484C121.415 16.8031 121.448 16.9943 121.448 17.2222C121.448 17.5477 121.383 17.8285 121.252 18.0645C121.13 18.3005 120.968 18.4998 120.764 18.6626C120.569 18.8172 120.341 18.9352 120.081 19.0166C119.828 19.0898 119.576 19.1265 119.324 19.1265C118.933 19.1265 118.579 19.0573 118.262 18.9189C117.952 18.7725 117.688 18.5771 117.468 18.333C117.249 18.0889 117.082 17.804 116.968 17.4785C116.854 17.153 116.797 16.8112 116.797 16.4531C116.797 15.916 116.886 15.4237 117.065 14.9761C117.244 14.5203 117.493 14.1094 117.81 13.7432C118.127 13.3688 118.502 13.0433 118.933 12.7666C119.364 12.4818 119.828 12.2458 120.325 12.0586C120.829 11.8633 121.354 11.7168 121.899 11.6191C122.445 11.5215 122.994 11.4727 123.547 11.4727C124.329 11.4727 124.988 11.5378 125.525 11.668C126.07 11.79 126.526 11.9772 126.892 12.2295C127.258 12.4736 127.551 12.7869 127.771 13.1694C127.999 13.5438 128.186 13.9792 128.333 14.4756L130.957 23.4966H133.606V24.5708H131.25L132.202 27.769C132.235 27.8911 132.267 28.005 132.3 28.1108C132.332 28.2166 132.369 28.3102 132.41 28.3916C132.458 28.4648 132.515 28.5259 132.581 28.5747C132.654 28.6235 132.743 28.6479 132.849 28.6479C133.077 28.6479 133.289 28.6113 133.484 28.5381C133.679 28.4567 133.85 28.3753 133.997 28.2939L134.204 28.7456C134.058 28.8514 133.87 28.9735 133.643 29.1118C133.423 29.242 133.167 29.3682 132.874 29.4902C132.589 29.6123 132.271 29.714 131.921 29.7954C131.571 29.8768 131.197 29.9175 130.798 29.9175C130.245 29.9175 129.797 29.8483 129.456 29.71C129.122 29.5716 128.857 29.4007 128.662 29.1973C128.475 28.9938 128.337 28.7782 128.247 28.5503C128.166 28.3224 128.101 28.123 128.052 27.9521L127.075 24.5708ZM124.707 16.3188C124.373 17.6779 124.048 18.9556 123.73 20.1519C123.421 21.3481 123.112 22.4631 122.803 23.4966H126.782L124.707 16.3188ZM139.624 19.627C139.933 19.1549 140.263 18.7277 140.613 18.3452C140.759 18.1825 140.918 18.0238 141.089 17.8691C141.26 17.7145 141.435 17.5762 141.614 17.4541C141.801 17.332 141.992 17.2344 142.188 17.1611C142.383 17.0879 142.578 17.0513 142.773 17.0513C143.188 17.0513 143.514 17.1774 143.75 17.4297C143.986 17.6738 144.104 18.0197 144.104 18.4673C144.104 18.744 144.08 19.0125 144.031 19.2729C143.99 19.5252 143.905 19.8345 143.774 20.2007H143.433C143.384 19.9484 143.27 19.7409 143.091 19.5781C142.912 19.4072 142.651 19.3218 142.31 19.3218C142.057 19.3218 141.809 19.3706 141.565 19.4683C141.321 19.5578 141.081 19.6717 140.845 19.8101C140.617 19.9484 140.397 20.099 140.186 20.2617C139.982 20.4245 139.795 20.5791 139.624 20.7256V28.6479C139.624 28.7537 139.608 28.8799 139.575 29.0264C139.543 29.1729 139.461 29.3112 139.331 29.4414C139.209 29.5716 139.022 29.6815 138.77 29.771C138.525 29.8687 138.188 29.9175 137.756 29.9175C137.325 29.9175 136.983 29.8646 136.731 29.7588C136.487 29.6611 136.3 29.5431 136.169 29.4048C136.039 29.2664 135.958 29.124 135.925 28.9775C135.893 28.8311 135.876 28.7131 135.876 28.6235V19.1997C135.876 18.9637 135.819 18.7603 135.706 18.5894C135.6 18.4103 135.417 18.3208 135.156 18.3208C135.018 18.3208 134.9 18.3452 134.802 18.394C134.705 18.4429 134.599 18.512 134.485 18.6016L134.229 18.2964C134.416 18.1418 134.623 17.9912 134.851 17.8447C135.087 17.6901 135.339 17.5558 135.608 17.4419C135.876 17.328 136.165 17.2344 136.475 17.1611C136.784 17.0879 137.109 17.0513 137.451 17.0513C137.801 17.0513 138.098 17.1001 138.342 17.1978C138.595 17.2873 138.798 17.4093 138.953 17.564C139.115 17.7104 139.242 17.8773 139.331 18.0645C139.421 18.2516 139.486 18.4429 139.526 18.6382C139.575 18.8254 139.604 19.0085 139.612 19.1875C139.62 19.3584 139.624 19.5049 139.624 19.627ZM149.622 18.1011V27.1221C149.622 27.5534 149.703 27.8545 149.866 28.0254C150.028 28.1882 150.252 28.2695 150.537 28.2695C150.757 28.2695 150.952 28.2085 151.123 28.0864C151.294 27.9644 151.44 27.826 151.562 27.6714C151.709 27.5005 151.835 27.3011 151.941 27.0732L152.319 27.2441C152.197 27.5046 152.051 27.7894 151.88 28.0986C151.717 28.4079 151.497 28.6968 151.221 28.9653C150.944 29.2257 150.594 29.4455 150.171 29.6245C149.756 29.8035 149.231 29.8931 148.596 29.8931C148.238 29.8931 147.892 29.8402 147.559 29.7344C147.233 29.6286 146.94 29.4618 146.68 29.2339C146.427 29.006 146.224 28.7212 146.069 28.3794C145.915 28.0376 145.837 27.6266 145.837 27.1465V18.1011H144.47V17.2222C144.698 17.2222 145.015 17.1652 145.422 17.0513C145.829 16.9292 146.244 16.7298 146.667 16.4531C147.099 16.1764 147.498 15.8062 147.864 15.3423C148.23 14.8784 148.49 14.3047 148.645 13.6211H149.622V17.2222H151.611C152.262 17.2222 152.588 17.1123 152.588 16.8926C152.588 16.8112 152.547 16.7583 152.466 16.7339C152.384 16.7013 152.291 16.6647 152.185 16.624C152.087 16.5752 151.998 16.5101 151.917 16.4287C151.835 16.3473 151.794 16.2131 151.794 16.0259C151.794 15.798 151.864 15.619 152.002 15.4888C152.148 15.3586 152.336 15.2935 152.563 15.2935C152.71 15.2935 152.836 15.326 152.942 15.3911C153.056 15.4481 153.149 15.5295 153.223 15.6353C153.296 15.7329 153.349 15.8468 153.381 15.9771C153.422 16.1073 153.442 16.2375 153.442 16.3677C153.442 16.8966 153.288 17.3198 152.979 17.6372C152.677 17.9465 152.189 18.1011 151.514 18.1011H149.622Z" fill="white" fill-opacity="0.87"/>
<g opacity="0.37">
<ellipse cx="170.365" cy="17.5606" rx="9.93192" ry="9.62242" fill="#70C8CE" fill-opacity="0.79"/>
<ellipse cx="189.068" cy="17.5607" rx="9.93193" ry="9.62242" fill="#70C8CE" fill-opacity="0.79"/>
<ellipse cx="172.558" cy="29.6824" rx="7.09423" ry="6.87316" fill="#70C8CE" fill-opacity="0.79"/>
<ellipse cx="186.23" cy="29.6824" rx="7.09423" ry="6.87316" fill="#70C8CE" fill-opacity="0.79"/>
<rect x="173.719" y="17.0608" width="10.4479" height="11.6219" fill="#70C8CE" fill-opacity="0.79"/>
</g>
<g opacity="0.55">
<ellipse cx="172.1" cy="18.6568" rx="8.27412" ry="7.85691" fill="#70C8CE" fill-opacity="0.79"/>
<ellipse cx="187.681" cy="18.6568" rx="8.27412" ry="7.85691" fill="#70C8CE" fill-opacity="0.79"/>
<ellipse cx="173.927" cy="28.5545" rx="5.91007" ry="5.61208" fill="#70C8CE" fill-opacity="0.79"/>
<ellipse cx="185.317" cy="28.5545" rx="5.91008" ry="5.61208" fill="#70C8CE" fill-opacity="0.79"/>
<rect x="174.894" y="18.2487" width="8.70395" height="9.48952" fill="#70C8CE" fill-opacity="0.79"/>
</g>
<ellipse cx="173.835" cy="19.2799" rx="6.61629" ry="6.19053" fill="#7FDEE4"/>
<ellipse cx="186.294" cy="19.2799" rx="6.61629" ry="6.19053" fill="#7FDEE4"/>
<ellipse cx="175.296" cy="27.0783" rx="4.72592" ry="4.4218" fill="#7FDEE4"/>
<ellipse cx="184.404" cy="27.0783" rx="4.72592" ry="4.4218" fill="#7FDEE4"/>
<rect x="176.069" y="18.9583" width="6.96002" height="7.47687" fill="#7FDEE4"/>
<path d="M182.048 7.11719C182.426 6.7832 182.685 6.42139 182.828 6.03174C182.976 5.64209 183.05 5.27409 183.05 4.92773C183.05 4.53809 182.97 4.20101 182.809 3.9165C182.654 3.62581 182.481 3.37533 182.29 3.16504C182.203 3.0599 182.16 2.92692 182.16 2.76611C182.16 2.59912 182.206 2.42594 182.299 2.24658C182.392 2.06104 182.512 1.89095 182.661 1.73633C182.815 1.58171 182.992 1.45492 183.189 1.35596C183.387 1.257 183.595 1.20752 183.811 1.20752C184.052 1.20752 184.253 1.28792 184.414 1.44873C184.575 1.60335 184.705 1.79508 184.804 2.02393C184.903 2.25277 184.974 2.49707 185.017 2.75684C185.06 3.01042 185.082 3.23617 185.082 3.43408C185.082 3.85465 185.008 4.25667 184.859 4.64014C184.711 5.02979 184.51 5.39469 184.256 5.73486C184.009 6.07503 183.718 6.38737 183.384 6.67188C183.05 6.96257 182.698 7.21924 182.327 7.44189L182.048 7.11719Z" fill="#7FDEE4"/>
<path d="M176.952 7.11719C176.574 6.7832 176.315 6.42139 176.172 6.03174C176.024 5.64209 175.95 5.27409 175.95 4.92773C175.95 4.53809 176.03 4.20101 176.191 3.9165C176.346 3.62581 176.519 3.37533 176.71 3.16504C176.797 3.0599 176.84 2.92692 176.84 2.76611C176.84 2.59912 176.794 2.42594 176.701 2.24658C176.608 2.06104 176.488 1.89095 176.339 1.73633C176.185 1.58171 176.008 1.45492 175.811 1.35596C175.613 1.257 175.405 1.20752 175.189 1.20752C174.948 1.20752 174.747 1.28792 174.586 1.44873C174.425 1.60335 174.295 1.79508 174.196 2.02393C174.097 2.25277 174.026 2.49707 173.983 2.75684C173.94 3.01042 173.918 3.23617 173.918 3.43408C173.918 3.85465 173.992 4.25667 174.141 4.64014C174.289 5.02979 174.49 5.39469 174.744 5.73486C174.991 6.07503 175.282 6.38737 175.616 6.67188C175.95 6.96257 176.302 7.21924 176.673 7.44189L176.952 7.11719Z" fill="#7FDEE4"/>
<path d="M6.598 54V42.1H12.174C13.602 42.1 14.69 42.3833 15.438 42.95C16.186 43.5053 16.56 44.2533 16.56 45.194C16.56 45.8287 16.4127 46.3727 16.118 46.826C15.8233 47.268 15.4267 47.6137 14.928 47.863C14.4407 48.101 13.908 48.22 13.33 48.22L13.636 47.608C14.3047 47.608 14.9053 47.7327 15.438 47.982C15.9707 48.22 16.39 48.5713 16.696 49.036C17.0133 49.5007 17.172 50.0787 17.172 50.77C17.172 51.79 16.781 52.5833 15.999 53.15C15.217 53.7167 14.0553 54 12.514 54H6.598ZM8.808 52.266H12.378C13.2053 52.266 13.84 52.13 14.282 51.858C14.724 51.586 14.945 51.1497 14.945 50.549C14.945 49.9597 14.724 49.529 14.282 49.257C13.84 48.9737 13.2053 48.832 12.378 48.832H8.638V47.115H11.936C12.7067 47.115 13.296 46.979 13.704 46.707C14.1233 46.435 14.333 46.027 14.333 45.483C14.333 44.9277 14.1233 44.514 13.704 44.242C13.296 43.97 12.7067 43.834 11.936 43.834H8.808V52.266ZM23.5936 54.119C22.585 54.119 21.701 53.9207 20.9416 53.524C20.1936 53.116 19.61 52.5607 19.1906 51.858C18.7826 51.1553 18.5786 50.3563 18.5786 49.461C18.5786 48.5543 18.777 47.7553 19.1736 47.064C19.5816 46.3613 20.137 45.8117 20.8396 45.415C21.5536 45.0183 22.364 44.82 23.2706 44.82C24.1546 44.82 24.9423 45.0127 25.6336 45.398C26.325 45.7833 26.869 46.3273 27.2656 47.03C27.6623 47.7327 27.8606 48.56 27.8606 49.512C27.8606 49.6027 27.855 49.7047 27.8436 49.818C27.8436 49.9313 27.838 50.039 27.8266 50.141H20.2616V48.73H26.7046L25.8716 49.172C25.883 48.6507 25.7753 48.1917 25.5486 47.795C25.322 47.3983 25.0103 47.0867 24.6136 46.86C24.2283 46.6333 23.7806 46.52 23.2706 46.52C22.7493 46.52 22.2903 46.6333 21.8936 46.86C21.5083 47.0867 21.2023 47.404 20.9756 47.812C20.7603 48.2087 20.6526 48.679 20.6526 49.223V49.563C20.6526 50.107 20.7773 50.5887 21.0266 51.008C21.276 51.4273 21.6273 51.7503 22.0806 51.977C22.534 52.2037 23.0553 52.317 23.6446 52.317C24.1546 52.317 24.6136 52.2377 25.0216 52.079C25.4296 51.9203 25.7923 51.671 26.1096 51.331L27.2486 52.64C26.8406 53.116 26.325 53.4843 25.7016 53.745C25.0896 53.9943 24.387 54.119 23.5936 54.119ZM29.9018 54V41.386H32.0268V54H29.9018ZM34.8159 54V41.386H36.9409V54H34.8159ZM43.9969 54.119C42.9883 54.119 42.1043 53.9207 41.3449 53.524C40.5969 53.116 40.0133 52.5607 39.5939 51.858C39.1859 51.1553 38.9819 50.3563 38.9819 49.461C38.9819 48.5543 39.1803 47.7553 39.5769 47.064C39.9849 46.3613 40.5403 45.8117 41.2429 45.415C41.9569 45.0183 42.7673 44.82 43.6739 44.82C44.5579 44.82 45.3456 45.0127 46.0369 45.398C46.7283 45.7833 47.2723 46.3273 47.6689 47.03C48.0656 47.7327 48.2639 48.56 48.2639 49.512C48.2639 49.6027 48.2583 49.7047 48.2469 49.818C48.2469 49.9313 48.2413 50.039 48.2299 50.141H40.6649V48.73H47.1079L46.2749 49.172C46.2863 48.6507 46.1786 48.1917 45.9519 47.795C45.7253 47.3983 45.4136 47.0867 45.0169 46.86C44.6316 46.6333 44.1839 46.52 43.6739 46.52C43.1526 46.52 42.6936 46.6333 42.2969 46.86C41.9116 47.0867 41.6056 47.404 41.3789 47.812C41.1636 48.2087 41.0559 48.679 41.0559 49.223V49.563C41.0559 50.107 41.1806 50.5887 41.4299 51.008C41.6793 51.4273 42.0306 51.7503 42.4839 51.977C42.9373 52.2037 43.4586 52.317 44.0479 52.317C44.5579 52.317 45.0169 52.2377 45.4249 52.079C45.8329 51.9203 46.1956 51.671 46.5129 51.331L47.6519 52.64C47.2439 53.116 46.7283 53.4843 46.1049 53.745C45.4929 53.9943 44.7903 54.119 43.9969 54.119ZM49.4741 54V52.657L55.0671 45.891L55.4581 46.622H49.5761V44.922H57.1581V46.265L51.5651 53.031L51.1401 52.3H57.3111V54H49.4741ZM64.863 54V52.164L64.744 51.773V48.56C64.744 47.9367 64.557 47.455 64.183 47.115C63.809 46.7637 63.2423 46.588 62.483 46.588C61.973 46.588 61.4686 46.6673 60.97 46.826C60.4826 46.9847 60.069 47.2057 59.729 47.489L58.896 45.942C59.3833 45.568 59.9613 45.2903 60.63 45.109C61.31 44.9163 62.0126 44.82 62.738 44.82C64.0526 44.82 65.067 45.1373 65.781 45.772C66.5063 46.3953 66.869 47.3643 66.869 48.679V54H64.863ZM62.007 54.119C61.327 54.119 60.732 54.0057 60.222 53.779C59.712 53.541 59.3153 53.218 59.032 52.81C58.76 52.3907 58.624 51.9203 58.624 51.399C58.624 50.889 58.743 50.43 58.981 50.022C59.2303 49.614 59.6326 49.291 60.188 49.053C60.7433 48.815 61.48 48.696 62.398 48.696H65.033V50.107H62.551C61.8256 50.107 61.3383 50.226 61.089 50.464C60.8396 50.6907 60.715 50.974 60.715 51.314C60.715 51.6993 60.868 52.0053 61.174 52.232C61.48 52.4587 61.905 52.572 62.449 52.572C62.9703 52.572 63.435 52.453 63.843 52.215C64.2623 51.977 64.5626 51.6257 64.744 51.161L65.101 52.436C64.897 52.9687 64.5286 53.3823 63.996 53.677C63.4746 53.9717 62.8116 54.119 62.007 54.119ZM78.5614 54.119C77.5527 54.119 76.6687 53.9207 75.9094 53.524C75.1614 53.116 74.5777 52.5607 74.1584 51.858C73.7504 51.1553 73.5464 50.3563 73.5464 49.461C73.5464 48.5543 73.7447 47.7553 74.1414 47.064C74.5494 46.3613 75.1047 45.8117 75.8074 45.415C76.5214 45.0183 77.3317 44.82 78.2384 44.82C79.1224 44.82 79.9101 45.0127 80.6014 45.398C81.2927 45.7833 81.8367 46.3273 82.2334 47.03C82.6301 47.7327 82.8284 48.56 82.8284 49.512C82.8284 49.6027 82.8227 49.7047 82.8114 49.818C82.8114 49.9313 82.8057 50.039 82.7944 50.141H75.2294V48.73H81.6724L80.8394 49.172C80.8507 48.6507 80.7431 48.1917 80.5164 47.795C80.2897 47.3983 79.9781 47.0867 79.5814 46.86C79.1961 46.6333 78.7484 46.52 78.2384 46.52C77.7171 46.52 77.2581 46.6333 76.8614 46.86C76.4761 47.0867 76.1701 47.404 75.9434 47.812C75.7281 48.2087 75.6204 48.679 75.6204 49.223V49.563C75.6204 50.107 75.7451 50.5887 75.9944 51.008C76.2437 51.4273 76.5951 51.7503 77.0484 51.977C77.5017 52.2037 78.0231 52.317 78.6124 52.317C79.1224 52.317 79.5814 52.2377 79.9894 52.079C80.3974 51.9203 80.7601 51.671 81.0774 51.331L82.2164 52.64C81.8084 53.116 81.2927 53.4843 80.6694 53.745C80.0574 53.9943 79.3547 54.119 78.5614 54.119ZM90.0206 44.82C90.7459 44.82 91.3919 44.9617 91.9586 45.245C92.5366 45.5283 92.9899 45.9647 93.3186 46.554C93.6473 47.132 93.8116 47.88 93.8116 48.798V54H91.6866V49.07C91.6866 48.2653 91.4939 47.6647 91.1086 47.268C90.7346 46.8713 90.2076 46.673 89.5276 46.673C89.0289 46.673 88.5869 46.775 88.2016 46.979C87.8163 47.183 87.5159 47.489 87.3006 47.897C87.0966 48.2937 86.9946 48.798 86.9946 49.41V54H84.8696V44.922H86.8926V47.37L86.5356 46.622C86.8529 46.044 87.3119 45.602 87.9126 45.296C88.5246 44.9787 89.2273 44.82 90.0206 44.82ZM106.799 54V52.164L106.68 51.773V48.56C106.68 47.9367 106.493 47.455 106.119 47.115C105.745 46.7637 105.178 46.588 104.419 46.588C103.909 46.588 103.404 46.6673 102.906 46.826C102.418 46.9847 102.005 47.2057 101.665 47.489L100.832 45.942C101.319 45.568 101.897 45.2903 102.566 45.109C103.246 44.9163 103.948 44.82 104.674 44.82C105.988 44.82 107.003 45.1373 107.717 45.772C108.442 46.3953 108.805 47.3643 108.805 48.679V54H106.799ZM103.943 54.119C103.263 54.119 102.668 54.0057 102.158 53.779C101.648 53.541 101.251 53.218 100.968 52.81C100.696 52.3907 100.56 51.9203 100.56 51.399C100.56 50.889 100.679 50.43 100.917 50.022C101.166 49.614 101.568 49.291 102.124 49.053C102.679 48.815 103.416 48.696 104.334 48.696H106.969V50.107H104.487C103.761 50.107 103.274 50.226 103.025 50.464C102.775 50.6907 102.651 50.974 102.651 51.314C102.651 51.6993 102.804 52.0053 103.11 52.232C103.416 52.4587 103.841 52.572 104.385 52.572C104.906 52.572 105.371 52.453 105.779 52.215C106.198 51.977 106.498 51.6257 106.68 51.161L107.037 52.436C106.833 52.9687 106.464 53.3823 105.932 53.677C105.41 53.9717 104.747 54.119 103.943 54.119ZM111.532 54V44.922H113.555V47.421L113.317 46.69C113.589 46.078 114.014 45.6133 114.592 45.296C115.181 44.9787 115.912 44.82 116.785 44.82V46.843C116.694 46.8203 116.609 46.809 116.53 46.809C116.45 46.7977 116.371 46.792 116.292 46.792C115.487 46.792 114.847 47.03 114.371 47.506C113.895 47.9707 113.657 48.6677 113.657 49.597V54H111.532ZM122.336 54.119C121.339 54.119 120.568 53.864 120.024 53.354C119.48 52.8327 119.208 52.0677 119.208 51.059V42.916H121.333V51.008C121.333 51.4387 121.441 51.773 121.656 52.011C121.883 52.249 122.195 52.368 122.591 52.368C123.067 52.368 123.464 52.2433 123.781 51.994L124.376 53.507C124.127 53.711 123.821 53.864 123.458 53.966C123.096 54.068 122.722 54.119 122.336 54.119ZM117.712 46.69V44.99H123.764V46.69H117.712ZM130.093 54.119C129.084 54.119 128.2 53.9207 127.441 53.524C126.693 53.116 126.109 52.5607 125.69 51.858C125.282 51.1553 125.078 50.3563 125.078 49.461C125.078 48.5543 125.276 47.7553 125.673 47.064C126.081 46.3613 126.636 45.8117 127.339 45.415C128.053 45.0183 128.863 44.82 129.77 44.82C130.654 44.82 131.441 45.0127 132.133 45.398C132.824 45.7833 133.368 46.3273 133.765 47.03C134.161 47.7327 134.36 48.56 134.36 49.512C134.36 49.6027 134.354 49.7047 134.343 49.818C134.343 49.9313 134.337 50.039 134.326 50.141H126.761V48.73H133.204L132.371 49.172C132.382 48.6507 132.274 48.1917 132.048 47.795C131.821 47.3983 131.509 47.0867 131.113 46.86C130.727 46.6333 130.28 46.52 129.77 46.52C129.248 46.52 128.789 46.6333 128.393 46.86C128.007 47.0867 127.701 47.404 127.475 47.812C127.259 48.2087 127.152 48.679 127.152 49.223V49.563C127.152 50.107 127.276 50.5887 127.526 51.008C127.775 51.4273 128.126 51.7503 128.58 51.977C129.033 52.2037 129.554 52.317 130.144 52.317C130.654 52.317 131.113 52.2377 131.521 52.079C131.929 51.9203 132.291 51.671 132.609 51.331L133.748 52.64C133.34 53.116 132.824 53.4843 132.201 53.745C131.589 53.9943 130.886 54.119 130.093 54.119Z" fill="#7FDEE4"/>
</g>
</svg>
