<svg width="320" height="177" viewBox="0 0 320 177" fill="none" xmlns="http://www.w3.org/2000/svg">
<line x1="0.353096" y1="124.387" x2="319.387" y2="38.6469" stroke="#808080" stroke-opacity="0.33" stroke-linecap="round" stroke-dasharray="11 11"/>
<line x1="319.395" y1="131.366" x2="0.365596" y2="52.6053" stroke="#808080" stroke-opacity="0.33" stroke-linecap="round" stroke-dasharray="11 11"/>
<path d="M89.2079 60.8826L91.2662 63.4889C91.9819 64.3951 91.4482 65.7362 90.3056 65.9029L87.0193 66.3823C85.8767 66.549 84.9821 65.4162 85.4091 64.3434L86.637 61.2577C87.064 60.1848 88.4923 59.9765 89.2079 60.8826Z" fill="#4B4B4B" stroke="black"/>
<rect x="119.5" y="112.5" width="13" height="16" rx="6.5" fill="#4B4B4B" stroke="black"/>
<rect x="82.5" y="112.5" width="13" height="16" rx="6.5" fill="#4B4B4B" stroke="black"/>
<mask id="path-6-inside-1_106_9" fill="white">
<path fill-rule="evenodd" clip-rule="evenodd" d="M70.0908 110.105C69.6998 110.143 69.3033 110.163 68.9022 110.163C62.3288 110.163 57 104.834 57 98.261C57 93.1751 60.1899 88.8343 64.6782 87.1301C67.2555 74.026 78.8065 64.1414 92.6662 64.1414H135.595C151.349 64.1414 164.12 76.9124 164.12 92.6662C164.12 104.164 157.317 114.073 147.517 118.588C147.547 118.88 147.563 119.177 147.563 119.478V128.403C147.563 133.151 143.714 137 138.966 137C134.218 137 130.369 133.151 130.369 128.403V121.191H106.807V128.403C106.807 133.151 102.958 137 98.2104 137C93.4625 137 89.6136 133.151 89.6136 128.403V121.03C81.6824 120.186 74.7222 116.092 70.0908 110.105Z"/>
</mask>
<path fill-rule="evenodd" clip-rule="evenodd" d="M70.0908 110.105C69.6998 110.143 69.3033 110.163 68.9022 110.163C62.3288 110.163 57 104.834 57 98.261C57 93.1751 60.1899 88.8343 64.6782 87.1301C67.2555 74.026 78.8065 64.1414 92.6662 64.1414H135.595C151.349 64.1414 164.12 76.9124 164.12 92.6662C164.12 104.164 157.317 114.073 147.517 118.588C147.547 118.88 147.563 119.177 147.563 119.478V128.403C147.563 133.151 143.714 137 138.966 137C134.218 137 130.369 133.151 130.369 128.403V121.191H106.807V128.403C106.807 133.151 102.958 137 98.2104 137C93.4625 137 89.6136 133.151 89.6136 128.403V121.03C81.6824 120.186 74.7222 116.092 70.0908 110.105Z" fill="url(#paint0_linear_106_9)"/>
<path d="M70.0908 110.105L70.8817 109.493L70.543 109.055L69.9921 109.109L70.0908 110.105ZM64.6782 87.1301L65.0331 88.065L65.5522 87.8679L65.6594 87.3231L64.6782 87.1301ZM147.517 118.588L147.099 117.679L146.449 117.979L146.523 118.69L147.517 118.588ZM130.369 121.191H131.369V120.191H130.369V121.191ZM106.807 121.191V120.191H105.807V121.191H106.807ZM89.6136 121.03H90.6136V120.13L89.7193 120.035L89.6136 121.03ZM69.9921 109.109C69.6339 109.145 69.2703 109.163 68.9022 109.163V111.163C69.3364 111.163 69.7658 111.142 70.1895 111.1L69.9921 109.109ZM68.9022 109.163C62.8811 109.163 58 104.282 58 98.261H56C56 105.387 61.7765 111.163 68.9022 111.163V109.163ZM58 98.261C58 93.604 60.9204 89.6266 65.0331 88.065L64.3232 86.1952C59.4595 88.042 56 92.7462 56 98.261H58ZM65.6594 87.3231C68.1462 74.6788 79.2935 65.1414 92.6662 65.1414V63.1414C78.3195 63.1414 66.3647 73.3731 63.697 86.9371L65.6594 87.3231ZM92.6662 65.1414H135.595V63.1414H92.6662V65.1414ZM135.595 65.1414C150.797 65.1414 163.12 77.4647 163.12 92.6662H165.12C165.12 76.3601 151.901 63.1414 135.595 63.1414V65.1414ZM163.12 92.6662C163.12 103.759 156.558 113.322 147.099 117.679L147.936 119.496C158.077 114.824 165.12 104.568 165.12 92.6662H163.12ZM146.523 118.69C146.549 118.949 146.563 119.211 146.563 119.478H148.563C148.563 119.143 148.546 118.812 148.512 118.485L146.523 118.69ZM146.563 119.478V128.403H148.563V119.478H146.563ZM146.563 128.403C146.563 132.599 143.162 136 138.966 136V138C144.266 138 148.563 133.703 148.563 128.403H146.563ZM138.966 136C134.77 136 131.369 132.599 131.369 128.403H129.369C129.369 133.703 133.666 138 138.966 138V136ZM131.369 128.403V121.191H129.369V128.403H131.369ZM130.369 120.191H106.807V122.191H130.369V120.191ZM105.807 121.191V128.403H107.807V121.191H105.807ZM105.807 128.403C105.807 132.599 102.406 136 98.2104 136V138C103.511 138 107.807 133.703 107.807 128.403H105.807ZM98.2104 136C94.0148 136 90.6136 132.599 90.6136 128.403H88.6136C88.6136 133.703 92.9102 138 98.2104 138V136ZM90.6136 128.403V121.03H88.6136V128.403H90.6136ZM89.7193 120.035C82.0688 119.221 75.3525 115.272 70.8817 109.493L69.2998 110.716C74.092 116.911 81.296 121.15 89.5078 122.024L89.7193 120.035Z" fill="black" mask="url(#path-6-inside-1_106_9)"/>
<path d="M113.345 72.2732L109.315 80.1826C108.79 81.2115 107.349 81.287 106.72 80.3186L101.885 72.874C101.256 71.9056 101.912 70.6195 103.065 70.5591L111.929 70.0943C113.083 70.0339 113.869 71.2444 113.345 72.2732Z" fill="#B6ACAC" stroke="black"/>
<ellipse cx="72.272" cy="79.4421" rx="1.32282" ry="1.38227" transform="rotate(24.984 72.272 79.4421)" fill="#171515"/>
<circle cx="88" cy="88" r="3" fill="#171515"/>
<g filter="url(#filter0_i_106_9)">
<rect x="101.59" y="64.4639" width="28.7882" height="10.3246" rx="5.1623" transform="rotate(59.3957 101.59 64.4639)" fill="#C4C4C4"/>
</g>
<rect x="101.414" y="65.1488" width="27.7882" height="9.32461" rx="4.6623" transform="rotate(59.3957 101.414 65.1488)" stroke="black"/>
<g filter="url(#filter1_i_106_9)">
<rect x="168" y="62.2965" width="100.248" height="19.3944" rx="9.6972" transform="rotate(-38.4202 168 62.2965)" fill="#635656"/>
</g>
<rect x="168.702" y="62.3775" width="99.2481" height="18.3944" rx="9.1972" transform="rotate(-38.4202 168.702 62.3775)" stroke="black"/>
<circle cx="98.5" cy="72.5" r="1.5" fill="#171515"/>
<ellipse cx="103.5" cy="75" rx="1.5" ry="1" fill="#171515"/>
<circle cx="105.5" cy="81.5" r="2.5" fill="#171515"/>
<circle cx="110.5" cy="88.5" r="1.5" fill="#171515"/>
<path d="M178 72.5C165.5 72.5 165 97 146 91.5C146 91.5 150.205 86 150.103 81C150 76 154 71 157.5 69.5C161 67.9999 173 67 173 67L178 72.5Z" fill="#E4F1EA" stroke="black"/>
<path fill-rule="evenodd" clip-rule="evenodd" d="M159.316 69C158.591 69.1819 157.969 69.3739 157.5 69.5749C154 71.0749 150 76.0749 150.103 81.0749C150.205 86.0749 146 91.5749 146 91.5749C154.858 94.1391 159.695 90.1825 163.602 85.228C160.437 86.1618 156.682 86.699 152.119 86.6722C152.119 86.6722 157.411 80.7647 156.51 76.3652C156.022 73.9835 157.284 71.3044 159.316 69Z" fill="#6FD299"/>
<path d="M157.5 69.5749L157.697 70.0345L157.697 70.0345L157.5 69.5749ZM159.316 69L159.691 69.3307L160.755 68.1234L159.194 68.515L159.316 69ZM146 91.5749L145.603 91.2712L145.159 91.8519L145.861 92.0552L146 91.5749ZM163.602 85.228L163.994 85.5376L164.967 84.3038L163.46 84.7484L163.602 85.228ZM152.119 86.6722L151.747 86.3386L151.006 87.1656L152.117 87.1722L152.119 86.6722ZM156.51 76.3652L156.02 76.4655L156.02 76.4655L156.51 76.3652ZM157.697 70.0345C158.131 69.8486 158.723 69.6641 159.437 69.485L159.194 68.515C158.458 68.6996 157.807 68.8992 157.303 69.1153L157.697 70.0345ZM150.602 81.0647C150.554 78.6974 151.479 76.2987 152.862 74.2966C154.247 72.2914 156.054 70.7388 157.697 70.0345L157.303 69.1153C155.446 69.9111 153.503 71.6085 152.039 73.7283C150.572 75.8511 149.549 78.4524 149.603 81.0852L150.602 81.0647ZM146 91.5749C146.397 91.8786 146.397 91.8785 146.397 91.8784C146.397 91.8783 146.398 91.8782 146.398 91.878C146.398 91.8777 146.398 91.8774 146.399 91.8769C146.399 91.876 146.4 91.8748 146.401 91.8732C146.404 91.8701 146.407 91.8656 146.411 91.8598C146.42 91.8483 146.433 91.8315 146.449 91.8097C146.481 91.7662 146.528 91.7025 146.587 91.6201C146.705 91.4554 146.872 91.2158 147.073 90.9132C147.472 90.3084 148.004 89.4493 148.533 88.4303C149.584 86.4069 150.656 83.6912 150.602 81.0647L149.603 81.0852C149.651 83.4586 148.672 85.9929 147.646 87.9695C147.137 88.9505 146.624 89.7789 146.238 90.3616C146.046 90.6528 145.886 90.882 145.774 91.0376C145.718 91.1154 145.675 91.1747 145.646 91.2141C145.631 91.2339 145.62 91.2486 145.613 91.2582C145.609 91.263 145.606 91.2665 145.605 91.2686C145.604 91.2697 145.603 91.2705 145.603 91.2709C145.603 91.2712 145.603 91.2713 145.603 91.2713C145.603 91.2714 145.603 91.2713 145.603 91.2714C145.603 91.2713 145.603 91.2712 146 91.5749ZM163.209 84.9184C161.273 87.3741 159.146 89.528 156.449 90.7666C153.769 91.9974 150.47 92.3484 146.139 91.0946L145.861 92.0552C150.388 93.3657 153.937 93.0204 156.866 91.6754C159.779 90.3381 162.024 88.0364 163.994 85.5376L163.209 84.9184ZM163.46 84.7484C160.349 85.6664 156.644 86.1988 152.122 86.1722L152.117 87.1722C156.72 87.1992 160.525 86.6573 163.743 85.7076L163.46 84.7484ZM152.119 86.6722C152.492 87.0058 152.492 87.0057 152.492 87.0055C152.492 87.0055 152.492 87.0053 152.492 87.0052C152.493 87.0049 152.493 87.0045 152.493 87.004C152.494 87.0031 152.495 87.0018 152.497 87.0001C152.5 86.9968 152.504 86.9921 152.509 86.986C152.52 86.9737 152.536 86.9559 152.556 86.9327C152.596 86.8864 152.655 86.8187 152.728 86.7314C152.875 86.5568 153.082 86.3036 153.328 85.9865C153.818 85.3529 154.464 84.4601 155.082 83.4248C155.699 82.3913 156.296 81.2038 156.681 79.9819C157.065 78.7631 157.248 77.4776 157 76.2648L156.02 76.4655C156.222 77.4525 156.082 78.5552 155.727 79.6814C155.373 80.8046 154.817 81.9189 154.223 82.9121C153.631 83.9037 153.01 84.7627 152.537 85.3743C152.3 85.6797 152.101 85.9224 151.962 86.0881C151.893 86.1709 151.838 86.2344 151.801 86.2768C151.783 86.2979 151.769 86.3138 151.76 86.3242C151.755 86.3294 151.752 86.3332 151.75 86.3356C151.749 86.3368 151.748 86.3377 151.747 86.3381C151.747 86.3384 151.747 86.3385 151.747 86.3386C151.747 86.3387 151.747 86.3386 151.747 86.3387C151.747 86.3386 151.747 86.3386 152.119 86.6722ZM157 76.2648C156.56 74.1162 157.694 71.5955 159.691 69.3307L158.941 68.6693C156.874 71.0134 155.484 73.8509 156.02 76.4655L157 76.2648Z" fill="#6FD299"/>
<circle cx="163" cy="75" r="3" fill="#6FD299"/>
<circle cx="159.5" cy="81.5" r="1.5" fill="#6FD299"/>
<circle cx="142.5" cy="100.5" r="3.5" fill="#6FD299"/>
<circle cx="148" cy="105" r="5" fill="#6FD299"/>
<circle cx="154" cy="97" r="2" fill="#6FD299"/>
<circle cx="157.5" cy="89.5" r="1.5" fill="#6FD299"/>
<line x1="41.5" y1="59" x2="41.5" y2="129" stroke="#525B69"/>
<line x1="148" y1="152.5" x2="78" y2="152.5" stroke="#525B69"/>
<line x1="35" y1="128.5" x2="48" y2="128.5" stroke="#525B69"/>
<line x1="78.5" y1="146" x2="78.5" y2="159" stroke="#525B69"/>
<line x1="35" y1="59.5" x2="48" y2="59.5" stroke="#525B69"/>
<line x1="147.5" y1="146" x2="147.5" y2="159" stroke="#525B69"/>
<path d="M203.175 135.5L252.5 84.2407L252.5 135.5H203.175Z" stroke="#525B69"/>
<path d="M98.018 166L100.898 159.7H101.555L104.435 166H103.733L101.087 160.087H101.357L98.711 166H98.018ZM99.152 164.317L99.35 163.777H103.013L103.211 164.317H99.152ZM107.754 161.23C108.138 161.23 108.474 161.305 108.762 161.455C109.056 161.599 109.284 161.821 109.446 162.121C109.614 162.421 109.698 162.799 109.698 163.255V166H109.059V163.318C109.059 162.82 108.933 162.445 108.681 162.193C108.435 161.935 108.087 161.806 107.637 161.806C107.301 161.806 107.007 161.875 106.755 162.013C106.509 162.145 106.317 162.34 106.179 162.598C106.047 162.85 105.981 163.156 105.981 163.516V166H105.342V161.275H105.954V162.571L105.855 162.328C106.005 161.986 106.245 161.719 106.575 161.527C106.905 161.329 107.298 161.23 107.754 161.23ZM113.386 166.045C112.918 166.045 112.498 165.943 112.126 165.739C111.76 165.529 111.472 165.244 111.262 164.884C111.052 164.518 110.947 164.101 110.947 163.633C110.947 163.159 111.052 162.742 111.262 162.382C111.472 162.022 111.76 161.74 112.126 161.536C112.498 161.332 112.918 161.23 113.386 161.23C113.788 161.23 114.151 161.308 114.475 161.464C114.799 161.62 115.054 161.854 115.24 162.166L114.763 162.49C114.601 162.25 114.4 162.073 114.16 161.959C113.92 161.845 113.659 161.788 113.377 161.788C113.041 161.788 112.738 161.866 112.468 162.022C112.198 162.172 111.985 162.385 111.829 162.661C111.673 162.937 111.595 163.261 111.595 163.633C111.595 164.005 111.673 164.329 111.829 164.605C111.985 164.881 112.198 165.097 112.468 165.253C112.738 165.403 113.041 165.478 113.377 165.478C113.659 165.478 113.92 165.421 114.16 165.307C114.4 165.193 114.601 165.019 114.763 164.785L115.24 165.109C115.054 165.415 114.799 165.649 114.475 165.811C114.151 165.967 113.788 166.045 113.386 166.045ZM118.837 161.23C119.221 161.23 119.557 161.305 119.845 161.455C120.139 161.599 120.367 161.821 120.529 162.121C120.697 162.421 120.781 162.799 120.781 163.255V166H120.142V163.318C120.142 162.82 120.016 162.445 119.764 162.193C119.518 161.935 119.17 161.806 118.72 161.806C118.384 161.806 118.09 161.875 117.838 162.013C117.592 162.145 117.4 162.34 117.262 162.598C117.13 162.85 117.064 163.156 117.064 163.516V166H116.425V159.322H117.064V162.571L116.938 162.328C117.088 161.986 117.328 161.719 117.658 161.527C117.988 161.329 118.381 161.23 118.837 161.23ZM124.433 166.045C123.977 166.045 123.566 165.943 123.2 165.739C122.84 165.529 122.555 165.244 122.345 164.884C122.135 164.518 122.03 164.101 122.03 163.633C122.03 163.159 122.135 162.742 122.345 162.382C122.555 162.022 122.84 161.74 123.2 161.536C123.56 161.332 123.971 161.23 124.433 161.23C124.901 161.23 125.315 161.332 125.675 161.536C126.041 161.74 126.326 162.022 126.53 162.382C126.74 162.742 126.845 163.159 126.845 163.633C126.845 164.101 126.74 164.518 126.53 164.884C126.326 165.244 126.041 165.529 125.675 165.739C125.309 165.943 124.895 166.045 124.433 166.045ZM124.433 165.478C124.775 165.478 125.078 165.403 125.342 165.253C125.606 165.097 125.813 164.881 125.963 164.605C126.119 164.323 126.197 163.999 126.197 163.633C126.197 163.261 126.119 162.937 125.963 162.661C125.813 162.385 125.606 162.172 125.342 162.022C125.078 161.866 124.778 161.788 124.442 161.788C124.106 161.788 123.806 161.866 123.542 162.022C123.278 162.172 123.068 162.385 122.912 162.661C122.756 162.937 122.678 163.261 122.678 163.633C122.678 163.999 122.756 164.323 122.912 164.605C123.068 164.881 123.278 165.097 123.542 165.253C123.806 165.403 124.103 165.478 124.433 165.478Z" fill="#868F9D"/>
<path d="M217.25 147V141.276H215.036V140.7H220.13V141.276H217.916V147H217.25ZM223.756 147V145.956L223.729 145.785V144.039C223.729 143.637 223.615 143.328 223.387 143.112C223.165 142.896 222.832 142.788 222.388 142.788C222.082 142.788 221.791 142.839 221.515 142.941C221.239 143.043 221.005 143.178 220.813 143.346L220.525 142.869C220.765 142.665 221.053 142.509 221.389 142.401C221.725 142.287 222.079 142.23 222.451 142.23C223.063 142.23 223.534 142.383 223.864 142.689C224.2 142.989 224.368 143.448 224.368 144.066V147H223.756ZM222.127 147.045C221.773 147.045 221.464 146.988 221.2 146.874C220.942 146.754 220.744 146.592 220.606 146.388C220.468 146.178 220.399 145.938 220.399 145.668C220.399 145.422 220.456 145.2 220.57 145.002C220.69 144.798 220.882 144.636 221.146 144.516C221.416 144.39 221.776 144.327 222.226 144.327H223.855V144.804H222.244C221.788 144.804 221.47 144.885 221.29 145.047C221.116 145.209 221.029 145.41 221.029 145.65C221.029 145.92 221.134 146.136 221.344 146.298C221.554 146.46 221.848 146.541 222.226 146.541C222.586 146.541 222.895 146.46 223.153 146.298C223.417 146.13 223.609 145.89 223.729 145.578L223.873 146.019C223.753 146.331 223.543 146.58 223.243 146.766C222.949 146.952 222.577 147.045 222.127 147.045ZM232.008 142.23C232.392 142.23 232.725 142.305 233.007 142.455C233.295 142.599 233.517 142.821 233.673 143.121C233.835 143.421 233.916 143.799 233.916 144.255V147H233.277V144.318C233.277 143.82 233.157 143.445 232.917 143.193C232.683 142.935 232.35 142.806 231.918 142.806C231.594 142.806 231.312 142.875 231.072 143.013C230.838 143.145 230.655 143.34 230.523 143.598C230.397 143.85 230.334 144.156 230.334 144.516V147H229.695V144.318C229.695 143.82 229.575 143.445 229.335 143.193C229.095 142.935 228.759 142.806 228.327 142.806C228.009 142.806 227.73 142.875 227.49 143.013C227.25 143.145 227.064 143.34 226.932 143.598C226.806 143.85 226.743 144.156 226.743 144.516V147H226.104V142.275H226.716V143.553L226.617 143.328C226.761 142.986 226.992 142.719 227.31 142.527C227.634 142.329 228.015 142.23 228.453 142.23C228.915 142.23 229.308 142.347 229.632 142.581C229.956 142.809 230.166 143.154 230.262 143.616L230.01 143.517C230.148 143.133 230.391 142.824 230.739 142.59C231.093 142.35 231.516 142.23 232.008 142.23ZM238.61 147V145.956L238.583 145.785V144.039C238.583 143.637 238.469 143.328 238.241 143.112C238.019 142.896 237.686 142.788 237.242 142.788C236.936 142.788 236.645 142.839 236.369 142.941C236.093 143.043 235.859 143.178 235.667 143.346L235.379 142.869C235.619 142.665 235.907 142.509 236.243 142.401C236.579 142.287 236.933 142.23 237.305 142.23C237.917 142.23 238.388 142.383 238.718 142.689C239.054 142.989 239.222 143.448 239.222 144.066V147H238.61ZM236.981 147.045C236.627 147.045 236.318 146.988 236.054 146.874C235.796 146.754 235.598 146.592 235.46 146.388C235.322 146.178 235.253 145.938 235.253 145.668C235.253 145.422 235.31 145.2 235.424 145.002C235.544 144.798 235.736 144.636 236 144.516C236.27 144.39 236.63 144.327 237.08 144.327H238.709V144.804H237.098C236.642 144.804 236.324 144.885 236.144 145.047C235.97 145.209 235.883 145.41 235.883 145.65C235.883 145.92 235.988 146.136 236.198 146.298C236.408 146.46 236.702 146.541 237.08 146.541C237.44 146.541 237.749 146.46 238.007 146.298C238.271 146.13 238.463 145.89 238.583 145.578L238.727 146.019C238.607 146.331 238.397 146.58 238.097 146.766C237.803 146.952 237.431 147.045 236.981 147.045ZM243.369 142.23C243.753 142.23 244.089 142.305 244.377 142.455C244.671 142.599 244.899 142.821 245.061 143.121C245.229 143.421 245.313 143.799 245.313 144.255V147H244.674V144.318C244.674 143.82 244.548 143.445 244.296 143.193C244.05 142.935 243.702 142.806 243.252 142.806C242.916 142.806 242.622 142.875 242.37 143.013C242.124 143.145 241.932 143.34 241.794 143.598C241.662 143.85 241.596 144.156 241.596 144.516V147H240.957V142.275H241.569V143.571L241.47 143.328C241.62 142.986 241.86 142.719 242.19 142.527C242.52 142.329 242.913 142.23 243.369 142.23ZM243.738 141.483C243.6 141.483 243.477 141.453 243.369 141.393C243.261 141.333 243.162 141.264 243.072 141.186C242.988 141.102 242.904 141.03 242.82 140.97C242.736 140.904 242.649 140.871 242.559 140.871C242.421 140.871 242.31 140.922 242.226 141.024C242.148 141.126 242.103 141.267 242.091 141.447H241.704C241.716 141.147 241.794 140.907 241.938 140.727C242.088 140.547 242.28 140.457 242.514 140.457C242.652 140.457 242.775 140.49 242.883 140.556C242.997 140.616 243.096 140.688 243.18 140.772C243.27 140.85 243.354 140.919 243.432 140.979C243.516 141.039 243.603 141.069 243.693 141.069C243.831 141.069 243.942 141.021 244.026 140.925C244.11 140.823 244.155 140.685 244.161 140.511H244.548C244.542 140.799 244.464 141.033 244.314 141.213C244.164 141.393 243.972 141.483 243.738 141.483ZM248.965 147.045C248.509 147.045 248.098 146.943 247.732 146.739C247.372 146.529 247.087 146.244 246.877 145.884C246.667 145.518 246.562 145.101 246.562 144.633C246.562 144.159 246.667 143.742 246.877 143.382C247.087 143.022 247.372 142.74 247.732 142.536C248.092 142.332 248.503 142.23 248.965 142.23C249.433 142.23 249.847 142.332 250.207 142.536C250.573 142.74 250.858 143.022 251.062 143.382C251.272 143.742 251.377 144.159 251.377 144.633C251.377 145.101 251.272 145.518 251.062 145.884C250.858 146.244 250.573 146.529 250.207 146.739C249.841 146.943 249.427 147.045 248.965 147.045ZM248.965 146.478C249.307 146.478 249.61 146.403 249.874 146.253C250.138 146.097 250.345 145.881 250.495 145.605C250.651 145.323 250.729 144.999 250.729 144.633C250.729 144.261 250.651 143.937 250.495 143.661C250.345 143.385 250.138 143.172 249.874 143.022C249.61 142.866 249.31 142.788 248.974 142.788C248.638 142.788 248.338 142.866 248.074 143.022C247.81 143.172 247.6 143.385 247.444 143.661C247.288 143.937 247.21 144.261 247.21 144.633C247.21 144.999 247.288 145.323 247.444 145.605C247.6 145.881 247.81 146.097 248.074 146.253C248.338 146.403 248.635 146.478 248.965 146.478Z" fill="#868F9D"/>
<path d="M212.357 111.337L214.586 108.863L215.014 109.248L212.785 111.722L212.357 111.337ZM214.819 113.458L214.374 113.953L209.693 109.736L212.584 106.526L213.012 106.912L210.566 109.627L214.819 113.458ZM219.312 108.538C219.007 108.877 218.656 109.114 218.259 109.249C217.862 109.376 217.46 109.397 217.052 109.312C216.639 109.223 216.259 109.022 215.911 108.709C215.559 108.392 215.32 108.035 215.193 107.638C215.066 107.241 215.047 106.84 215.136 106.436C215.226 106.032 215.425 105.659 215.734 105.315C216.048 104.968 216.4 104.728 216.793 104.597C217.19 104.462 217.59 104.439 217.994 104.528C218.402 104.613 218.782 104.814 219.134 105.132C219.482 105.445 219.721 105.802 219.853 106.203C219.984 106.596 220.005 106.998 219.916 107.41C219.822 107.819 219.621 108.195 219.312 108.538ZM218.891 108.159C219.119 107.904 219.266 107.629 219.332 107.333C219.393 107.032 219.371 106.734 219.266 106.438C219.161 106.133 218.972 105.858 218.7 105.613C218.424 105.364 218.131 105.205 217.822 105.136C217.516 105.063 217.219 105.074 216.931 105.17C216.639 105.262 216.38 105.432 216.155 105.682C215.93 105.932 215.787 106.207 215.726 106.507C215.661 106.804 215.679 107.103 215.78 107.403C215.88 107.704 216.069 107.979 216.345 108.228C216.617 108.473 216.91 108.631 217.224 108.704C217.533 108.773 217.834 108.762 218.127 108.67C218.415 108.574 218.67 108.404 218.891 108.159ZM221.766 105.747L218.255 102.584L218.665 102.129L219.621 102.991L219.412 102.887C219.233 102.548 219.178 102.2 219.249 101.844C219.315 101.484 219.503 101.132 219.812 100.789L220.274 101.204C220.258 101.222 220.241 101.24 220.225 101.258C220.205 101.272 220.187 101.287 220.171 101.305C219.837 101.675 219.69 102.067 219.728 102.482C219.763 102.892 219.987 103.284 220.402 103.657L222.194 105.272L221.766 105.747ZM224.544 95.5358C224.801 95.2505 225.08 95.0533 225.38 94.9442C225.68 94.8266 225.993 94.8102 226.321 94.8951C226.652 94.9756 226.987 95.1684 227.326 95.4736L229.365 97.3109L228.938 97.7856L226.945 95.9905C226.575 95.6572 226.216 95.4954 225.868 95.505C225.52 95.5062 225.201 95.6673 224.912 95.9882C224.695 96.229 224.558 96.4847 224.5 96.7553C224.441 97.0175 224.463 97.284 224.567 97.5548C224.67 97.8171 224.855 98.0687 225.122 98.3096L226.968 99.9722L226.54 100.447L224.547 98.6519C224.177 98.3186 223.819 98.1567 223.471 98.1664C223.118 98.172 222.798 98.3353 222.508 98.6563C222.296 98.8925 222.16 99.146 222.102 99.4167C222.039 99.6833 222.06 99.9521 222.163 100.223C222.266 100.485 222.451 100.737 222.719 100.978L224.564 102.64L224.137 103.115L220.626 99.9525L221.036 99.4978L221.985 100.353L221.752 100.276C221.594 99.9402 221.55 99.5899 221.62 99.2251C221.69 98.8519 221.872 98.5025 222.165 98.1771C222.474 97.8339 222.824 97.6202 223.215 97.5361C223.601 97.448 223.998 97.5228 224.405 97.7607L224.163 97.8817C223.97 97.5222 223.903 97.1348 223.962 96.7196C224.021 96.296 224.215 95.9014 224.544 95.5358ZM232.507 93.8234L231.731 93.1246L231.586 93.0302L230.289 91.8616C229.99 91.5925 229.684 91.4704 229.371 91.4952C229.062 91.5156 228.759 91.6907 228.462 92.0206C228.257 92.248 228.1 92.4983 227.991 92.7716C227.882 93.045 227.826 93.3092 227.822 93.5643L227.275 93.459C227.284 93.1441 227.361 92.8258 227.506 92.5038C227.646 92.1779 227.841 91.8767 228.09 91.6003C228.499 91.1456 228.928 90.8981 229.376 90.8577C229.824 90.8089 230.278 90.9913 230.737 91.4049L232.917 93.3687L232.507 93.8234ZM231.45 95.0638C231.213 95.3268 230.964 95.5183 230.703 95.6381C230.441 95.7495 230.188 95.7882 229.944 95.7541C229.696 95.7161 229.471 95.6068 229.27 95.426C229.088 95.2614 228.961 95.0704 228.89 94.8532C228.819 94.6275 228.827 94.3764 228.915 94.1C229.002 93.815 229.196 93.5054 229.497 93.1711L230.587 91.9608L230.942 92.28L229.863 93.477C229.558 93.8158 229.406 94.1062 229.405 94.3484C229.409 94.5861 229.5 94.7853 229.679 94.9459C229.879 95.1266 230.11 95.1932 230.371 95.1456C230.632 95.098 230.889 94.9338 231.142 94.6529C231.383 94.3855 231.53 94.1017 231.582 93.8015C231.634 93.493 231.584 93.1897 231.432 92.8917L231.856 93.0799C232.008 93.3778 232.052 93.7005 231.99 94.0479C231.931 94.3908 231.751 94.7295 231.45 95.0638Z" fill="#868F9D"/>
<path d="M35 103.982L28.7 101.102V100.445L35 97.565V98.267L29.087 100.913V100.643L35 103.289V103.982ZM33.317 102.848L32.777 102.65V98.987L33.317 98.789V102.848ZM35 96.6578H28.322V96.0188H35V96.6578ZM35.045 92.7205C35.045 93.1645 34.925 93.5065 34.685 93.7465C34.445 93.9865 34.106 94.1065 33.668 94.1065H29.231V93.4675H33.632C33.908 93.4675 34.121 93.3985 34.271 93.2605C34.421 93.1165 34.496 92.9125 34.496 92.6485C34.496 92.3665 34.415 92.1325 34.253 91.9465L34.712 91.7215C34.826 91.8475 34.91 92.0005 34.964 92.1805C35.018 92.3545 35.045 92.5345 35.045 92.7205ZM30.806 94.9525H30.275V92.0275H30.806V94.9525ZM35.045 88.7992C35.045 89.2552 34.943 89.6662 34.739 90.0322C34.529 90.3922 34.244 90.6772 33.884 90.8872C33.518 91.0972 33.101 91.2022 32.633 91.2022C32.159 91.2022 31.742 91.0972 31.382 90.8872C31.022 90.6772 30.74 90.3922 30.536 90.0322C30.332 89.6722 30.23 89.2612 30.23 88.7992C30.23 88.3312 30.332 87.9172 30.536 87.5572C30.74 87.1912 31.022 86.9062 31.382 86.7022C31.742 86.4922 32.159 86.3872 32.633 86.3872C33.101 86.3872 33.518 86.4922 33.884 86.7022C34.244 86.9062 34.529 87.1912 34.739 87.5572C34.943 87.9232 35.045 88.3372 35.045 88.7992ZM34.478 88.7992C34.478 88.4572 34.403 88.1542 34.253 87.8902C34.097 87.6262 33.881 87.4192 33.605 87.2692C33.323 87.1132 32.999 87.0352 32.633 87.0352C32.261 87.0352 31.937 87.1132 31.661 87.2692C31.385 87.4192 31.172 87.6262 31.022 87.8902C30.866 88.1542 30.788 88.4542 30.788 88.7902C30.788 89.1262 30.866 89.4262 31.022 89.6902C31.172 89.9542 31.385 90.1642 31.661 90.3202C31.937 90.4762 32.261 90.5542 32.633 90.5542C32.999 90.5542 33.323 90.4762 33.605 90.3202C33.881 90.1642 34.097 89.9542 34.253 89.6902C34.403 89.4262 34.478 89.1292 34.478 88.7992Z" fill="#868F9D"/>
<defs>
<filter id="filter0_i_106_9" x="94.6118" y="66.3721" width="19.7261" height="30.218" filterUnits="userSpaceOnUse" color-interpolation-filters="sRGB">
<feFlood flood-opacity="0" result="BackgroundImageFix"/>
<feBlend mode="normal" in="SourceGraphic" in2="BackgroundImageFix" result="shape"/>
<feColorMatrix in="SourceAlpha" type="matrix" values="0 0 0 0 0 0 0 0 0 0 0 0 0 0 0 0 0 0 127 0" result="hardAlpha"/>
<feOffset dy="4"/>
<feGaussianBlur stdDeviation="2"/>
<feComposite in2="hardAlpha" operator="arithmetic" k2="-1" k3="1"/>
<feColorMatrix type="matrix" values="0 0 0 0 0 0 0 0 0 0 0 0 0 0 0 0 0 0 0.25 0"/>
<feBlend mode="normal" in2="shape" result="effect1_innerShadow_106_9"/>
</filter>
<filter id="filter1_i_106_9" x="171.926" y="3.9259" width="82.742" height="73.6396" filterUnits="userSpaceOnUse" color-interpolation-filters="sRGB">
<feFlood flood-opacity="0" result="BackgroundImageFix"/>
<feBlend mode="normal" in="SourceGraphic" in2="BackgroundImageFix" result="shape"/>
<feColorMatrix in="SourceAlpha" type="matrix" values="0 0 0 0 0 0 0 0 0 0 0 0 0 0 0 0 0 0 127 0" result="hardAlpha"/>
<feOffset dy="4"/>
<feGaussianBlur stdDeviation="2"/>
<feComposite in2="hardAlpha" operator="arithmetic" k2="-1" k3="1"/>
<feColorMatrix type="matrix" values="0 0 0 0 0 0 0 0 0 0 0 0 0 0 0 0 0 0 0.25 0"/>
<feBlend mode="normal" in2="shape" result="effect1_innerShadow_106_9"/>
</filter>
<linearGradient id="paint0_linear_106_9" x1="68.1087" y1="84.3751" x2="152.218" y2="110.56" gradientUnits="userSpaceOnUse">
<stop stop-color="#BF9393"/>
<stop offset="1" stop-color="#323841"/>
</linearGradient>
</defs>
</svg>
